<svg width="393" height="500" viewBox="0 0 393 500" fill="none" xmlns="http://www.w3.org/2000/svg">
<path opacity="0.7" d="M455.599 273.979C461.427 296.857 477.733 316.411 482.011 339.852C487.84 371.521 484.554 403.979 477.237 435.141C475.935 440.72 461.861 500 452.685 500C452.375 500 -81.7571 500 -81.7571 500C-81.7571 500 -85.4771 491.209 -86.7171 477.347C-88.5771 456.441 -70.783 428.83 -65.141 408.769C-57.949 383.073 -55.283 359.462 -62.413 333.485C-75.5571 285.644 -109.409 239.549 -97.5052 188.834C-87.5851 146.627 -47.8429 115.86 -6.67473 99.124C10.4374 92.1929 28.9134 92.7001 46.1495 86.7833C59.5416 82.1626 71.4456 73.5973 82.6057 65.5956C107.344 47.7325 129.788 26.094 157.564 12.0065C207.102 -13.1258 274.311 5.30077 319.385 29.7004C371.527 57.9319 415.857 101.265 439.045 152.544C448.221 172.887 449.585 193.68 450.205 214.586C450.763 234.365 450.577 254.256 455.599 273.979Z" fill="#B9E5D1" fill-opacity="0.4"/>
</svg>
