<svg width="383" height="218" viewBox="0 0 383 218" fill="none" xmlns="http://www.w3.org/2000/svg">
<g>
<path d="M316.412 208.132C316.412 208.132 372.037 183.391 370.742 133.476C369.449 83.5602 316.731 60.3488 280.942 91.1667C245.152 121.984 221.99 96.1416 203.448 70.0984C184.907 44.0558 143.544 11.189 89.2753 26.3762C32.4258 42.2852 14.9321 99.865 20.5631 138.289C24.6079 165.888 39.4008 189.288 59.5589 207.268C60.2145 207.853 60.8857 208.431 61.5725 209L316.412 208.132" fill="#E2F5ED"/>
<path d="M70.7518 101.681H43.1451V137.21H70.7518V101.681Z" fill="#B9E5D1"/>
<path d="M260.978 83.2788H212.855V131.409H260.978V83.2788Z" fill="#B9E5D1"/>
<path d="M133.265 89.3422H105.658V124.871H133.265V89.3422Z" fill="#B9E5D1"/>
<path d="M185.497 108.571H157.891V144.099H185.497V108.571Z" fill="#B9E5D1"/>
<path d="M376.676 169.276H15.5383V122.657H376.676V169.276Z" fill="#B9E5D1"/>
<path d="M43.1451 87.1279H15.5383V122.657H43.1451V87.1279Z" fill="#B9E5D1"/>
<path d="M161.817 54.6682C161.817 64.6065 153.762 72.6627 143.825 72.6627C133.888 72.6627 125.832 64.6065 125.832 54.6682C125.832 44.7298 133.888 36.6736 143.825 36.6736C153.762 36.6736 161.817 44.7298 161.817 54.6682" fill="#E9EDFD"/>
<path d="M147.99 46.4206C147.99 48.7207 146.125 50.5856 143.825 50.5856C141.525 50.5856 139.661 48.7207 139.661 46.4206C139.661 44.1205 141.525 42.2556 143.825 42.2556C146.125 42.2556 147.99 44.1205 147.99 46.4206Z" fill="#E2F5ED"/>
<path d="M164.85 169.276H122.8V53.1968H164.85V169.276" fill="#8AD4B5"/>
<path d="M136.856 77.9637H128.495V61.5107H136.856V77.9637Z" fill="#B9E5D1"/>
<path d="M157.891 77.9637H149.531V61.5107H157.891V77.9637Z" fill="#B9E5D1"/>
<path d="M136.856 103.047H128.495V86.5946H136.856V103.047Z" fill="#B9E5D1"/>
<path d="M157.891 103.047H149.531V86.5946H157.891V103.047Z" fill="#B9E5D1"/>
<path d="M136.856 128.132H128.495V111.679H136.856V128.132Z" fill="#B9E5D1"/>
<path d="M157.891 128.132H149.531V111.679H157.891V128.132Z" fill="#B9E5D1"/>
<path d="M136.856 153.216H128.495V136.763H136.856V153.216Z" fill="#B9E5D1"/>
<path d="M157.891 153.216H149.531V136.763H157.891V153.216Z" fill="#B9E5D1"/>
<path d="M220.482 169.276H174.75V26.3675H220.482V169.276Z" fill="#8AD4B5"/>
<path d="M185.496 42.7683H179.26V36.5318H185.496V42.7683Z" fill="#B9E5D1"/>
<path d="M200.734 42.7683H194.498V36.5318H200.734V42.7683Z" fill="#B9E5D1"/>
<path d="M215.972 42.7683H209.736V36.5318H215.972V42.7683Z" fill="#B9E5D1"/>
<path d="M185.496 53.7845H179.26V47.548H185.496V53.7845Z" fill="#B9E5D1"/>
<path d="M200.734 53.7845H194.498V47.548H200.734V53.7845Z" fill="#B9E5D1"/>
<path d="M215.972 53.7845H209.736V47.548H215.972V53.7845Z" fill="#B9E5D1"/>
<path d="M185.496 64.8006H179.26V58.5641H185.496V64.8006Z" fill="#B9E5D1"/>
<path d="M200.734 64.8006H194.498V58.5641H200.734V64.8006Z" fill="#B9E5D1"/>
<path d="M215.972 64.8006H209.736V58.5641H215.972V64.8006Z" fill="#B9E5D1"/>
<path d="M185.496 75.8173H179.26V69.5803H185.496V75.8173Z" fill="#B9E5D1"/>
<path d="M200.734 75.8173H194.498V69.5803H200.734V75.8173Z" fill="#B9E5D1"/>
<path d="M215.972 75.8173H209.736V69.5803H215.972V75.8173Z" fill="#B9E5D1"/>
<path d="M185.496 86.8329H179.26V80.5965H185.496V86.8329Z" fill="#B9E5D1"/>
<path d="M200.734 86.8329H194.498V80.5965H200.734V86.8329Z" fill="#B9E5D1"/>
<path d="M215.972 86.8329H209.736V80.5965H215.972V86.8329Z" fill="#B9E5D1"/>
<path d="M185.496 97.8491H179.26V91.6121H185.496V97.8491Z" fill="#B9E5D1"/>
<path d="M200.734 97.8491H194.498V91.6121H200.734V97.8491Z" fill="#B9E5D1"/>
<path d="M215.972 97.8491H209.736V91.6121H215.972V97.8491Z" fill="#B9E5D1"/>
<path d="M185.496 108.865H179.26V102.629H185.496V108.865Z" fill="#B9E5D1"/>
<path d="M200.734 108.865H194.498V102.629H200.734V108.865Z" fill="#B9E5D1"/>
<path d="M215.972 108.865H209.736V102.629H215.972V108.865Z" fill="#B9E5D1"/>
<path d="M185.496 119.881H179.26V113.645H185.496V119.881Z" fill="#B9E5D1"/>
<path d="M200.734 119.881H194.498V113.645H200.734V119.881Z" fill="#B9E5D1"/>
<path d="M215.972 119.881H209.736V113.645H215.972V119.881Z" fill="#B9E5D1"/>
<path d="M185.496 130.898H179.26V124.661H185.496V130.898Z" fill="#B9E5D1"/>
<path d="M200.734 130.898H194.498V124.661H200.734V130.898Z" fill="#B9E5D1"/>
<path d="M215.972 130.898H209.736V124.661H215.972V130.898Z" fill="#B9E5D1"/>
<path d="M185.496 141.914H179.26V135.677H185.496V141.914Z" fill="#B9E5D1"/>
<path d="M200.734 141.914H194.498V135.677H200.734V141.914Z" fill="#B9E5D1"/>
<path d="M215.972 141.914H209.736V135.677H215.972V141.914Z" fill="#B9E5D1"/>
<path d="M185.496 152.93H179.26V146.693H185.496V152.93Z" fill="#B9E5D1"/>
<path d="M200.734 152.93H194.498V146.693H200.734V152.93Z" fill="#B9E5D1"/>
<path d="M215.972 152.93H209.736V146.693H215.972V152.93Z" fill="#B9E5D1"/>
<path d="M366.281 208.754H320.549V65.8461H366.281V208.754" fill="#8AD4B5"/>
<path d="M331.295 82.2468H325.059V76.0103H331.295V82.2468Z" fill="#B9E5D1"/>
<path d="M346.533 82.2468H340.297V76.0103H346.533V82.2468Z" fill="#B9E5D1"/>
<path d="M361.771 82.2468H355.535V76.0103H361.771V82.2468Z" fill="#B9E5D1"/>
<path d="M331.295 93.2635H325.059V87.027H331.295V93.2635Z" fill="#B9E5D1"/>
<path d="M346.533 93.2635H340.297V87.027H346.533V93.2635Z" fill="#B9E5D1"/>
<path d="M361.771 93.2635H355.535V87.027H361.771V93.2635Z" fill="#B9E5D1"/>
<path d="M331.295 104.28H325.059V98.0427H331.295V104.28Z" fill="#B9E5D1"/>
<path d="M346.533 104.28H340.297V98.0427H346.533V104.28Z" fill="#B9E5D1"/>
<path d="M361.771 104.28H355.535V98.0427H361.771V104.28Z" fill="#B9E5D1"/>
<path d="M331.295 115.295H325.059V109.059H331.295V115.295Z" fill="#B9E5D1"/>
<path d="M346.533 115.295H340.297V109.059H346.533V115.295Z" fill="#B9E5D1"/>
<path d="M361.771 115.295H355.535V109.059H361.771V115.295Z" fill="#B9E5D1"/>
<path d="M331.295 126.312H325.059V120.075H331.295V126.312Z" fill="#B9E5D1"/>
<path d="M346.533 126.312H340.297V120.075H346.533V126.312Z" fill="#B9E5D1"/>
<path d="M361.771 126.312H355.535V120.075H361.771V126.312Z" fill="#B9E5D1"/>
<path d="M331.295 137.328H325.059V131.091H331.295V137.328Z" fill="#B9E5D1"/>
<path d="M346.533 137.328H340.297V131.091H346.533V137.328Z" fill="#B9E5D1"/>
<path d="M361.771 137.328H355.535V131.091H361.771V137.328Z" fill="#B9E5D1"/>
<path d="M331.295 148.344H325.059V142.107H331.295V148.344" fill="#B9E5D1"/>
<path d="M346.533 148.344H340.297V142.107H346.533V148.344" fill="#B9E5D1"/>
<path d="M361.771 148.344H355.535V142.107H361.771V148.344" fill="#B9E5D1"/>
<path d="M331.295 159.36H325.059V153.123H331.295V159.36Z" fill="#B9E5D1"/>
<path d="M346.533 159.36H340.297V153.123H346.533V159.36Z" fill="#B9E5D1"/>
<path d="M361.771 159.36H355.535V153.123H361.771V159.36Z" fill="#B9E5D1"/>
<path d="M331.295 170.376H325.059V164.14H331.295V170.376" fill="#B9E5D1"/>
<path d="M346.533 170.376H340.297V164.14H346.533V170.376Z" fill="#B9E5D1"/>
<path d="M361.771 170.376H355.535V164.14H361.771V170.376Z" fill="#B9E5D1"/>
<path d="M112.795 169.276H56.2319V26.3675H112.795V169.276Z" fill="#8AD4B5"/>
<path d="M65.9857 123.26H62.1684V49.3418H65.9857V123.26Z" fill="#B9E5D1"/>
<path d="M76.2036 123.26H72.3868V49.3418H76.2036V123.26Z" fill="#B9E5D1"/>
<path d="M86.4221 123.26H82.6048V49.3418H86.4221V123.26Z" fill="#B9E5D1"/>
<path d="M96.6406 123.26H92.8233V49.3418H96.6406V123.26Z" fill="#B9E5D1"/>
<path d="M106.859 123.26H103.042V49.3418H106.859V123.26Z" fill="#B9E5D1"/>
<path d="M112.795 42.1812H56.2319V34.2744H112.795V42.1812Z" fill="#E9EDFD"/>
<path d="M10.7992 87.3618C10.7992 88.9858 9.50098 90.3024 7.89972 90.3024C6.29824 90.3024 5 88.9858 5 87.3618C5 85.7379 6.29824 84.4213 7.89972 84.4213C9.50098 84.4213 10.7992 85.7379 10.7992 87.3618V87.3618Z" stroke="#B9E5D1" stroke-width="1.70287" stroke-miterlimit="10"/>
<path d="M355.151 24.2185C355.151 25.8424 353.853 27.159 352.251 27.159C350.65 27.159 349.352 25.8424 349.352 24.2185C349.352 22.5945 350.65 21.2779 352.251 21.2779C353.853 21.2779 355.151 22.5945 355.151 24.2185V24.2185Z" stroke="#B9E5D1" stroke-width="1.70287" stroke-miterlimit="10"/>
<path d="M218.799 54.9221C218.799 56.6059 217.454 57.9711 215.794 57.9711C214.134 57.9711 212.788 56.6059 212.788 54.9221C212.788 53.2383 214.134 51.8737 215.794 51.8737C217.454 51.8737 218.799 53.2383 218.799 54.9221Z" stroke="#B9E5D1" stroke-width="1.70287" stroke-miterlimit="10"/>
<path d="M46.3108 14.658H67.414" stroke="#B9E5D1" stroke-width="1.33136" stroke-miterlimit="10"/>
<path d="M358.295 79.6572H376.605" stroke="#B9E5D1" stroke-width="1.33136" stroke-miterlimit="10"/>
<path d="M204.66 1H236.552" stroke="#B9E5D1" stroke-width="1.33136" stroke-miterlimit="10"/>
<path d="M259.735 208.702H320.168C327.882 208.702 334.135 202.448 334.135 194.733V33.8748C334.135 26.16 327.882 19.9057 320.168 19.9057H259.735C252.022 19.9057 245.768 26.16 245.768 33.8748V194.733C245.768 202.448 252.022 208.702 259.735 208.702Z" fill="#008955"/>
<path d="M250.568 208.702H311C318.714 208.702 324.967 202.448 324.967 194.733V33.8748C324.967 26.16 318.714 19.9057 311 19.9057H250.568C242.854 19.9057 236.6 26.16 236.6 33.8748V194.733C236.6 202.448 242.854 208.702 250.568 208.702Z" fill="#007848"/>
<path d="M250.485 204.47H311.083C316.394 204.47 320.698 200.164 320.698 194.853V34.6394C320.698 29.3281 316.394 25.0223 311.083 25.0223H250.485C245.174 25.0223 240.869 29.3281 240.869 34.6394V194.853C240.869 200.164 245.174 204.47 250.485 204.47" fill="white"/>
<path d="M265.97 29.7454H294.942C296.377 29.7454 297.539 28.5824 297.539 27.1477V22.911H263.373V27.1477C263.373 28.5824 264.535 29.7454 265.97 29.7454" fill="#007848"/>
<path d="M272.603 25.3916H285.997" stroke="#312220" stroke-width="1.1578" stroke-miterlimit="10" stroke-linecap="round" stroke-linejoin="round"/>
<path d="M316.392 110.405H245.239V57.1089H316.392V110.405Z" fill="#E2F5ED"/>
<path d="M320.869 61.2093L232.459 127.967" stroke="white" stroke-width="6.83467" stroke-miterlimit="10"/>
<path d="M341.907 72.2319L253.497 138.99" stroke="white" stroke-width="6.83467" stroke-miterlimit="10"/>
<path d="M299.421 50.5188L221.269 109.531" stroke="white" stroke-width="6.83467" stroke-miterlimit="10"/>
<path d="M250.279 51.9934L283.033 100.158C284.144 101.791 283.854 103.996 282.359 105.287L271.846 114.363C267.052 118.502 266.39 123.01 270.347 127.955L287.316 151.845" stroke="white" stroke-width="6.83467" stroke-miterlimit="10"/>
<path d="M304.851 51.844C304.851 45.0597 297.691 39.9485 290.516 43.6568C289.401 44.2332 287.985 45.6253 287.377 46.7241C285.499 50.1214 285.669 53.4717 287.018 56.119H287.008L287.084 56.257C287.119 56.3223 287.156 56.3859 287.191 56.4501L295.419 71.3304L303.661 56.4258C303.689 56.3762 303.717 56.326 303.744 56.2754L303.782 56.2069H303.777C304.46 54.9016 304.851 53.4194 304.851 51.844" fill="#008955"/>
<path d="M299.597 51.7443C299.597 54.0524 297.727 55.9233 295.419 55.9233C293.111 55.9233 291.24 54.0524 291.24 51.7443C291.24 49.4361 293.111 47.5652 295.419 47.5652C297.727 47.5652 299.597 49.4361 299.597 51.7443Z" fill="white"/>
<path d="M209.945 163.812H200.177C190.587 163.812 182.813 173.874 182.813 186.286C182.813 198.699 190.587 208.761 200.177 208.761H209.945C219.535 208.761 227.31 198.699 227.31 186.286C227.31 173.874 219.535 163.812 209.945 163.812" fill="black"/>
<path d="M331.765 163.812H321.997C312.407 163.812 304.632 173.874 304.632 186.286C304.632 198.699 312.407 208.761 321.997 208.761H331.765C341.355 208.761 349.13 198.699 349.13 186.286C349.13 173.874 341.355 163.812 331.765 163.812Z" fill="black"/>
<path d="M285.368 158.367H213.358V190.577H285.368V158.367Z" fill="black"/>
<path d="M269.686 186.749C269.686 198.873 262.093 208.702 252.726 208.702C243.358 208.702 235.764 198.873 235.764 186.749C235.764 174.625 243.358 164.796 252.726 164.796C262.093 164.796 269.686 174.625 269.686 186.749Z" fill="black"/>
<path d="M243.184 208.702H252.726L262.479 198.946L252.726 164.796H243.184V208.702Z" fill="black"/>
<path d="M260.145 186.749C260.145 198.873 252.551 208.702 243.184 208.702C233.816 208.702 226.222 198.873 226.222 186.749C226.222 174.625 233.816 164.796 243.184 164.796C252.551 164.796 260.145 174.625 260.145 186.749Z" fill="#007848"/>
<path d="M250.2 186.286C250.2 192.42 246.534 197.393 242.012 197.393C237.489 197.393 233.823 192.42 233.823 186.286C233.823 180.152 237.489 175.181 242.012 175.181C246.534 175.181 250.2 180.152 250.2 186.286Z" fill="#B8B8C2"/>
<path d="M254.012 186.286C254.012 192.42 250.346 197.393 245.824 197.393C241.301 197.393 237.635 192.42 237.635 186.286C237.635 180.152 241.301 175.181 245.824 175.181C250.346 175.181 254.012 180.152 254.012 186.286Z" fill="white"/>
<path d="M163.549 158.367H91.5394V190.577H163.549V158.367Z" fill="black"/>
<path d="M147.867 186.749C147.867 198.873 140.273 208.702 130.905 208.702C121.538 208.702 113.945 198.873 113.945 186.749C113.945 174.625 121.538 164.796 130.905 164.796C140.273 164.796 147.867 174.625 147.867 186.749Z" fill="black"/>
<path d="M121.364 208.702H130.906L140.66 198.946L130.906 164.796H121.364V208.702Z" fill="black"/>
<path d="M138.326 186.749C138.326 198.873 130.732 208.702 121.364 208.702C111.997 208.702 104.403 198.873 104.403 186.749C104.403 174.625 111.997 164.796 121.364 164.796C130.732 164.796 138.326 174.625 138.326 186.749Z" fill="#007848"/>
<path d="M128.38 186.286C128.38 192.42 124.715 197.393 120.192 197.393C115.67 197.393 112.004 192.42 112.004 186.286C112.004 180.152 115.67 175.181 120.192 175.181C124.715 175.181 128.38 180.152 128.38 186.286Z" fill="#B8B8C2"/>
<path d="M132.193 186.286C132.193 192.42 128.526 197.393 124.004 197.393C119.482 197.393 115.816 192.42 115.816 186.286C115.816 180.152 119.482 175.181 124.004 175.181C128.526 175.181 132.193 180.152 132.193 186.286Z" fill="white"/>
<path d="M80.1005 190.576V152.438C80.1005 146.998 84.0897 142.363 89.4763 141.614C94.2047 140.958 100.258 140.385 106.523 140.501C106.523 140.501 142.727 118.245 156.003 118.245L239.173 117.816C250.306 117.664 261.315 120.173 271.283 125.134L308.323 143.568L357.57 154.352C357.57 154.352 367.771 157.12 369.957 163.752C372.143 170.384 371.415 177.671 371.415 177.671H263.251C263.251 177.671 258.376 162.343 242.779 162.343C227.181 162.343 222.957 181.152 223.932 190.576H142.21C142.21 190.576 142.535 162.627 121.413 163.602C100.291 164.577 101.916 190.576 101.916 190.576H80.1005" fill="#008955"/>
<path d="M80.9031 177.671C78.0535 177.671 75.7424 179.98 75.7386 182.829L75.7354 185.415C75.7354 188.265 78.0459 190.576 80.8966 190.576H101.916C101.916 190.576 101.809 183.542 103.672 177.671H80.9031" fill="#005932"/>
<path d="M207.349 107.305H175.072C172.383 107.305 170.203 109.485 170.203 112.174V118.245H212.217V112.174C212.217 109.485 210.037 107.305 207.349 107.305Z" fill="black"/>
<path d="M213.628 107.305H181.351C178.662 107.305 176.483 109.485 176.483 112.174V118.245H218.496V112.174C218.496 109.485 216.316 107.305 213.628 107.305Z" fill="#005932"/>
<path d="M188.039 110.705H186.038V109.756H191.161V110.705H189.16V115.793H188.039V110.705Z" fill="black"/>
<path d="M195.898 113.517L194.76 110.877L193.63 113.517H195.898ZM196.269 114.396H193.251L192.656 115.793H191.5L194.217 109.756H195.32L198.046 115.793H196.873L196.269 114.396" fill="black"/>
<path d="M202.965 115.793L201.326 113.499L199.705 115.793H198.429L200.671 112.714L198.549 109.756H199.817L201.361 111.903L202.887 109.756H204.104L201.991 112.671L204.259 115.793H202.965" fill="black"/>
<path d="M205.59 109.756H206.711V115.793H205.59V109.756Z" fill="black"/>
<path d="M223.612 142.037L190.745 123.547C187.954 121.977 184.805 121.152 181.602 121.152H162.03C156.966 121.152 152.005 122.583 147.718 125.281L116.493 143.002C115.601 143.508 115.96 144.869 116.985 144.869H222.87C224.426 144.869 224.968 142.801 223.612 142.037Z" fill="black"/>
<path d="M116.286 143.771V157.034C116.286 157.034 144.961 151.258 147.867 184.124H213.358C213.358 184.124 211.608 151.997 223.7 144.16" stroke="black" stroke-width="1.04803" stroke-miterlimit="10" stroke-linecap="round" stroke-linejoin="round"/>
<path d="M169.733 144.869C169.733 144.869 162.901 147.9 166.214 184.124" stroke="black" stroke-width="1.04803" stroke-miterlimit="10" stroke-linecap="round" stroke-linejoin="round"/>
<path d="M180.267 151.289H173.686C172.966 151.289 172.383 150.705 172.383 149.986V149.381C172.383 148.661 172.966 148.077 173.686 148.077H180.267C180.988 148.077 181.571 148.661 181.571 149.381V149.986C181.571 150.705 180.988 151.289 180.267 151.289Z" fill="black"/>
<path d="M130.834 151.289H124.253C123.533 151.289 122.95 150.705 122.95 149.986V149.381C122.95 148.661 123.533 148.077 124.253 148.077H130.834C131.554 148.077 132.138 148.661 132.138 149.381V149.986C132.138 150.705 131.554 151.289 130.834 151.289Z" fill="black"/>
<path d="M203.24 124.894L240.859 144.869H304.814L261.79 123.828C258.189 122.067 254.234 121.152 250.226 121.152H204.172C202.101 121.152 201.412 123.922 203.24 124.894" fill="black"/>
<path d="M250.2 148.077H309.4" stroke="black" stroke-width="1.04803" stroke-miterlimit="10" stroke-linecap="round" stroke-linejoin="round"/>
<path d="M215.42 121.152L257.178 144.869H271.113L229.368 121.152H215.42Z" fill="#5E5E5E"/>
<path d="M241.432 121.152L283.191 144.869H287.72L245.975 121.152H241.432Z" fill="#5E5E5E"/>
<path d="M365.07 190.576H268.402C265.551 190.576 263.24 188.265 263.24 185.415L263.251 177.671H371.415L371.328 184.318C371.328 187.774 368.527 190.576 365.07 190.576" fill="#005932"/>
<path d="M339.976 181.379H322.428V176.069H339.976V181.379Z" fill="white"/>
<path d="M301.616 165.482H353.339" stroke="black" stroke-width="1.04803" stroke-miterlimit="10" stroke-linecap="round" stroke-linejoin="round"/>
<path d="M311.056 169.432H345.05" stroke="black" stroke-width="1.04803" stroke-miterlimit="10" stroke-linecap="round" stroke-linejoin="round"/>
<path d="M311.056 173.366H345.05" stroke="black" stroke-width="1.04803" stroke-miterlimit="10" stroke-linecap="round" stroke-linejoin="round"/>
<path d="M303.774 173.961H281.198C279.29 173.961 277.744 172.415 277.744 170.507V167.266C277.744 165.358 279.29 163.812 281.198 163.812H303.774C305.682 163.812 307.228 165.358 307.228 167.266V170.507C307.228 172.415 305.682 173.961 303.774 173.961Z" fill="white"/>
<path d="M369.991 163.812H352.867C350.96 163.812 349.413 165.358 349.413 167.266V170.507C349.413 172.415 350.96 173.961 352.867 173.961H371.53C371.682 167.146 370.222 164.229 369.991 163.812" fill="white"/>
<path d="M277.744 170.507H307.228" stroke="black" stroke-width="1.04803" stroke-miterlimit="10" stroke-linecap="round" stroke-linejoin="round"/>
<path d="M349.413 170.507H371.415" stroke="black" stroke-width="1.04803" stroke-miterlimit="10" stroke-linecap="round" stroke-linejoin="round"/>
<path d="M167.112 24.3204C167.112 14.2682 156.502 6.69407 145.871 12.1887C144.219 13.0427 142.12 15.1061 141.221 16.7338C138.439 21.7674 138.689 26.7315 140.688 30.6539H140.674L140.787 30.8588C140.838 30.9553 140.892 31.0502 140.945 31.1451L153.136 53.193L165.348 31.1095C165.39 31.0351 165.431 30.9617 165.471 30.8863L165.528 30.7849H165.521C166.532 28.8504 167.112 26.6544 167.112 24.3204" fill="#008955"/>
<path d="M159.327 24.1721C159.327 27.592 156.555 30.3649 153.136 30.3649C149.716 30.3649 146.944 27.592 146.944 24.1721C146.944 20.7527 149.716 17.9798 153.136 17.9798C156.555 17.9798 159.327 20.7527 159.327 24.1721Z" fill="white"/>
<path d="M102.034 197.809H110.753L125.171 205.523L100.379 205.228L102.034 197.809Z" fill="#101010"/>
<path d="M100.293 208.491L100.379 205.228L125.171 205.523L125.085 208.786L100.293 208.491Z" fill="white"/>
<path d="M116.778 200.65L113.922 201.431" stroke="white" stroke-width="1.94209" stroke-miterlimit="10" stroke-linecap="round" stroke-linejoin="round"/>
<path d="M113.986 199.217L111.129 199.998" stroke="white" stroke-width="1.94209" stroke-miterlimit="10" stroke-linecap="round" stroke-linejoin="round"/>
<path d="M111.675 185.516H102.789L102.034 197.809H110.92L111.675 185.516Z" fill="#EBB28B"/>
<path d="M117.49 104.741L112.01 193.857H99.6366L101.775 104.741H117.49Z" fill="#B9E5D1"/>
<path d="M81.9964 197.809H90.7152L105.134 205.523L80.3414 205.228L81.9964 197.809Z" fill="#101010"/>
<path d="M80.2557 208.491L80.3415 205.228L105.134 205.523L105.047 208.786L80.2557 208.491" fill="white"/>
<path d="M96.7411 200.65L93.885 201.431" stroke="white" stroke-width="1.94209" stroke-miterlimit="10" stroke-linecap="round" stroke-linejoin="round"/>
<path d="M93.9491 199.217L91.0925 199.998" stroke="white" stroke-width="1.94209" stroke-miterlimit="10" stroke-linecap="round" stroke-linejoin="round"/>
<path d="M92.5205 185.516H83.6342L81.9964 197.809H90.8833L92.5205 185.516Z" fill="#EBB28B"/>
<path d="M91.2882 104.741L79.1727 193.857H92.699L110.309 104.741H91.2882" fill="#B9E5D1"/>
<path d="M100.596 153.897L107.51 118.904L112.558 115.614" stroke="#171717" stroke-width="0.850184" stroke-miterlimit="10" stroke-linecap="round" stroke-linejoin="round"/>
<path d="M89.5124 117.804L97.0683 111.855" stroke="#171717" stroke-width="0.850184" stroke-miterlimit="10" stroke-linecap="round" stroke-linejoin="round"/>
<path d="M119.818 70.871L133.584 88.9486C135.107 90.6502 135.201 93.1951 133.81 95.005C132.054 97.2868 128.689 97.4922 126.669 95.4407L111.875 78.3287C109.846 76.2681 109.781 72.9819 111.725 70.8409H111.725C113.898 68.4486 117.663 68.4632 119.818 70.871" fill="#EBB28B"/>
<path d="M113.076 64.0135C113.076 64.0135 119.806 64.8535 124.958 74.842L117.043 84.3312L113.076 64.0135Z" fill="#007848"/>
<path d="M124.146 89.6905L143.017 77.8537L146.774 81.733L133.093 95.7533L124.146 89.6905Z" fill="#EBB28B"/>
<path d="M146.04 70.4575L155.397 73.1878C155.397 73.1878 155.397 80.4406 146.766 81.7519C146.294 81.8236 144.17 81.0105 143.804 80.6849L142.368 76.5899C141.859 75.9187 141.902 74.9789 142.471 74.3573L146.04 70.4575" fill="#EBB28B"/>
<path d="M145.266 71.6641L148.576 67.3179C149.068 66.7114 149.909 66.5841 150.466 67.0311C151 67.4603 151.087 68.2712 150.665 68.8907L147.608 73.658L145.266 71.6641" fill="#E9B0A0"/>
<path d="M149.267 75.1315L153.244 71.2064C153.794 70.6548 154.61 70.5982 155.078 71.0797C155.527 71.5418 155.5 72.3397 155.015 72.9096L151.221 77.2666L149.267 75.1315" fill="#E9B0A0"/>
<path d="M147.736 72.4502L151.493 68.7381C152.048 68.1909 152.888 68.1671 153.384 68.6847C153.859 69.1808 153.85 70.0046 153.364 70.5739L149.805 74.7401L147.736 72.4502" fill="#E9B0A0"/>
<path d="M154.06 61.0508L155.55 61.1467V70.9277L150.321 79.1154L148.732 78.9854L151.537 68.7004L154.06 61.0508" fill="#36438D"/>
<path d="M145.297 74.6268L149.666 78.7466C150.066 79.2437 150.825 79.2372 151.216 78.7331L160.73 66.8564C160.963 66.5561 160.959 66.1356 160.721 65.8396L156.137 61.4535C155.805 61.04 155.174 61.0459 154.849 61.4648L145.286 73.4045C145.006 73.7652 145.01 74.271 145.297 74.6268" fill="#050907"/>
<path d="M143.843 74.5303L148.213 78.6501C148.612 79.1472 149.371 79.1402 149.761 78.636L159.276 66.7599C159.509 66.4596 159.505 66.0391 159.267 65.7431L154.683 61.357C154.351 60.9435 153.719 60.9494 153.395 61.3683L143.832 73.3081C143.552 73.6688 143.556 74.1745 143.843 74.5303" fill="white"/>
<path d="M143.377 77.9211C142.865 77.6693 141.586 76.3355 141.812 74.3136C142.109 71.6528 143.484 69.6375 143.484 69.6375C143.94 68.7807 144.47 68.3661 145.212 68.4696C146.016 68.5823 146.532 69.4385 146.388 70.0332L145.55 71.8911C145.55 71.8911 146.472 74.2467 144.542 77.8171L143.377 77.9211Z" fill="#EBB28B"/>
<path d="M100.414 62.0972C100.414 62.0972 95.3238 63.2866 91.6947 65.1171C89.41 66.2698 89.1566 68.7602 89.444 71.3029L91.2882 104.741H117.49L119.323 72.4362C119.575 68.8923 117.494 65.419 114.131 64.276C110.362 62.995 107.982 61.7754 105.977 61.6589L100.414 62.0972" fill="#007848"/>
<path d="M118.767 82.2641L119.323 72.4362" stroke="#171717" stroke-width="0.850184" stroke-miterlimit="10" stroke-linecap="round" stroke-linejoin="round"/>
<path d="M100.414 62.0973L97.3929 62.9276C97.3929 62.9276 99.6366 67.2517 107.787 66.52C113.503 66.0073 111.2 63.2106 111.2 63.2106L108.356 62.1814L100.414 62.0973Z" fill="#EBB28B"/>
<path d="M75.6534 81.2941L89.183 101.216L85.5393 105.202L70.6043 90.5666L75.6534 81.2941" fill="#EBB28B"/>
<path d="M101.614 102.122L95.8273 99.1792L96.3955 97.9089C96.6026 97.4469 96.4742 96.9029 96.0829 96.5815C95.6785 96.2494 95.099 96.2402 94.6845 96.5594L88.9847 101.036L85.5393 105.202C88.6655 107.879 90.7087 107.846 91.886 107.328C92.0235 107.373 92.1594 107.424 92.299 107.463L97.1088 108.843C97.5535 109.035 98.071 108.847 98.2888 108.415C98.4473 108.101 98.5034 107.598 97.5778 107.128L98.5034 107.598C98.974 107.801 99.5207 107.596 99.7401 107.132C99.9471 106.723 99.6932 106.182 99.1498 105.829L99.8581 106.107C100.371 106.328 100.976 106.076 101.168 105.532C101.334 105.061 101.085 104.541 100.639 104.315L99.6166 103.798L100.831 104.092C101.39 104.289 102.014 103.991 102.197 103.405C102.355 102.902 102.084 102.361 101.614 102.122" fill="#EBB28B"/>
<path d="M99.9244 103.943L96.5028 102.328" stroke="#171717" stroke-width="0.552121" stroke-miterlimit="10" stroke-linecap="round" stroke-linejoin="round"/>
<path d="M99.0042 105.768L95.7055 104.394" stroke="#171717" stroke-width="0.552121" stroke-miterlimit="10" stroke-linecap="round" stroke-linejoin="round"/>
<path d="M97.884 107.249L95.0888 106.146" stroke="#171717" stroke-width="0.552121" stroke-miterlimit="10" stroke-linecap="round" stroke-linejoin="round"/>
<path d="M94.63 75.8027L77.4249 90.6437C75.8195 92.2671 73.2852 92.5162 71.3941 91.2362C69.0102 89.6231 68.6011 86.2754 70.5256 84.1349L86.7043 68.3262C88.6375 66.1755 91.9135 65.9102 94.168 67.7212C96.6877 69.7453 96.9028 73.5048 94.63 75.8027" fill="#EBB28B"/>
<path d="M95.4058 63.5772C95.4058 63.5772 86.4267 65.3322 79.0605 74.6721L86.8671 84.8499L98.0597 76.8336L95.4058 63.5772" fill="#007848"/>
<path d="M90.6666 82.1282L97.1595 77.4779" stroke="#171717" stroke-width="0.850184" stroke-miterlimit="10" stroke-linecap="round" stroke-linejoin="round"/>
<path d="M114.332 34.0258C114.332 34.0258 117.363 36.7351 114.848 42.8179L110.686 34.6054L114.332 34.0258Z" fill="#008955"/>
<path d="M97.3497 34.7596C97.3497 34.7596 93.8095 34.3747 93.0057 39.8353C92.202 45.2965 96.2144 48.5605 100.668 51.2008L97.3497 34.7596Z" fill="#008955"/>
<path d="M114.887 41.7396C114.887 47.4801 110.34 52.1336 104.73 52.1336C99.1207 52.1336 94.5729 47.4801 94.5729 41.7396C94.5729 35.9997 99.1207 31.3462 104.73 31.3462C110.34 31.3462 114.887 35.9997 114.887 41.7396Z" fill="#008955"/>
<path d="M111.292 46.2168C111.746 47.5658 113.207 48.2915 114.555 47.838C115.904 47.3846 116.63 45.9235 116.176 44.5745C115.723 43.2255 114.262 42.4993 112.913 42.9532C111.565 43.4067 110.839 44.8678 111.292 46.2168Z" fill="#DD8161"/>
<path d="M108.404 52.1966L108.555 63.4101L100.192 62.0277L100.8 45.9451L108.404 52.1966" fill="#EBB28B"/>
<path d="M108.485 57.8783L102.611 52.1335L108.671 53.1978L108.485 57.8783Z" fill="#171717"/>
<path d="M113.675 36.7464C113.675 36.7464 115.936 45.7785 114.915 49.2458C113.894 52.7137 111.202 54.9615 106.705 54.2239C106.705 54.2239 101.52 54.1247 99.9869 46.4772C97.6796 34.9639 108.098 30.7488 113.675 36.7464Z" fill="#EBB28B"/>
<path d="M101.439 46.4707C101.439 46.4707 104.758 38.847 101.154 37.3605C100.072 36.9146 99.4381 36.6882 98.9271 40.5092C98.4155 44.3297 99.7497 44.9551 99.7497 44.9551L101.439 46.4707" fill="#008955"/>
<path d="M96.85 47.3463C97.319 48.7406 98.8285 49.4906 100.223 49.022C101.617 48.553 102.367 47.0428 101.898 45.6491C101.43 44.2548 99.9196 43.5043 98.5255 43.9728C97.132 44.4419 96.3815 45.9521 96.85 47.3463Z" fill="#EBB28B"/>
<path d="M98.1503 45.7558C98.1503 45.7558 100.085 45.1368 100.668 47.2687" stroke="#171717" stroke-width="0.525888" stroke-miterlimit="10" stroke-linecap="round" stroke-linejoin="round"/>
<path d="M111.819 45.4609L112.397 47.411C112.425 47.5561 112.335 47.6973 112.191 47.7324L111.537 47.8375" stroke="#1E0B07" stroke-width="0.497083" stroke-miterlimit="10" stroke-linecap="round" stroke-linejoin="round"/>
<path d="M107.753 44.8505C107.732 45.2059 108.003 45.511 108.357 45.532C108.713 45.5536 109.018 45.283 109.039 44.9276C109.06 44.5729 108.79 44.2677 108.435 44.2462C108.08 44.2251 107.775 44.4958 107.753 44.8505Z" fill="#171717"/>
<path d="M113.138 44.7055C113.118 45.0349 113.369 45.3174 113.699 45.3374C114.028 45.3573 114.311 45.1061 114.331 44.7772C114.351 44.4478 114.099 44.1647 113.77 44.1448C113.441 44.1253 113.158 44.3761 113.138 44.7055Z" fill="#171717"/>
<path d="M109.611 40.4893L104.758 42.0404C104.758 42.0404 105.837 40.5583 107.237 40.1183C108.636 39.6784 109.611 40.4893 109.611 40.4893Z" fill="#171717"/>
<path d="M112.333 40.375L114.887 41.1988C114.887 41.1988 114.449 40.1064 113.711 39.8746C112.974 39.6433 112.333 40.375 112.333 40.375" fill="#171717"/>
<path d="M108.396 48.3211C108.396 48.3211 110.183 49.2312 111.969 49.2312C111.969 49.2312 109.539 50.9959 108.396 48.3211Z" fill="white"/>
<path d="M100.074 37.4479C100.074 37.4479 102.774 39.7738 109.456 38.4275C116.137 37.0807 116.401 32.5512 115.596 30.9596C115.596 30.9596 113.137 32.8688 109.086 31.8249C106.826 31.2421 101.779 29.1183 98.7492 31.3931C97.705 32.1776 97.098 33.478 97.3497 34.7596C97.5444 35.7511 98.2064 36.8834 100.074 37.4479" fill="#008955"/>
<path d="M69.6626 155.731H52.2693V118.466C52.2693 114.74 55.2888 111.721 59.0133 111.721H62.9191C66.6436 111.721 69.6626 114.74 69.6626 118.466V155.731Z" stroke="#101010" stroke-width="3.82461" stroke-miterlimit="10"/>
<path d="M56.105 204.747C56.105 206.977 54.2969 208.786 52.0667 208.786C49.8364 208.786 48.0283 206.977 48.0283 204.747C48.0283 202.517 49.8364 200.708 52.0667 200.708C54.2969 200.708 56.105 202.517 56.105 204.747Z" fill="#101010"/>
<path d="M73.9041 204.747C73.9041 206.977 72.096 208.786 69.8653 208.786C67.635 208.786 65.8269 206.977 65.8269 204.747C65.8269 202.517 67.635 200.708 69.8653 200.708C72.096 200.708 73.9041 202.517 73.9041 204.747Z" fill="#101010"/>
<path d="M74.7758 203.8H47.156C43.2151 203.8 40.0204 200.605 40.0204 196.663V150.07C40.0204 146.128 43.2151 142.933 47.156 142.933H74.7758C78.7171 142.933 81.9117 146.128 81.9117 150.07V196.663C81.9117 200.605 78.7171 203.8 74.7758 203.8" fill="#007848"/>
<path d="M48.7356 194.631H47.2062V152.559H48.7356V194.631Z" stroke="#171717" stroke-width="0.817204" stroke-miterlimit="10" stroke-linecap="round" stroke-linejoin="round"/>
<path d="M56.8699 194.631H55.3405V152.559H56.8699V194.631Z" stroke="#171717" stroke-width="0.817204" stroke-miterlimit="10" stroke-linecap="round" stroke-linejoin="round"/>
<path d="M65.0042 194.631H63.4748V152.559H65.0042V194.631Z" stroke="#171717" stroke-width="0.817204" stroke-miterlimit="10" stroke-linecap="round" stroke-linejoin="round"/>
<path d="M73.1386 194.631H71.6092V152.559H73.1386V194.631Z" stroke="#171717" stroke-width="0.817204" stroke-miterlimit="10" stroke-linecap="round" stroke-linejoin="round"/>
<path d="M13.7212 208.761H378" stroke="black" stroke-width="1.30461" stroke-miterlimit="10" stroke-linecap="round" stroke-linejoin="round"/>
</g>
<defs>

</defs>
</svg>
