<svg width="38" height="38" viewBox="0 0 38 38" fill="none" xmlns="http://www.w3.org/2000/svg">
<g id="CreditCardOutline">
<path id="Vector" d="M4.75 15.8333H33.25H4.75ZM11.0833 23.75H12.6667H11.0833ZM19 23.75H20.5833H19ZM9.5 30.0833H28.5C29.7598 30.0833 30.968 29.5829 31.8588 28.6921C32.7496 27.8013 33.25 26.5931 33.25 25.3333V12.6667C33.25 11.4069 32.7496 10.1987 31.8588 9.30792C30.968 8.41712 29.7598 7.91667 28.5 7.91667H9.5C8.24022 7.91667 7.03204 8.41712 6.14124 9.30792C5.25045 10.1987 4.75 11.4069 4.75 12.6667V25.3333C4.75 26.5931 5.25045 27.8013 6.14124 28.6921C7.03204 29.5829 8.24022 30.0833 9.5 30.0833Z" stroke="#1F2937" stroke-width="2" stroke-linecap="round" stroke-linejoin="round"/>
</g>
</svg>
